<svg width="1600" height="900" viewBox="0 0 1600 900" fill="none" xmlns="http://www.w3.org/2000/svg" role="img" aria-label="SenseLoop project cover">
  <rect width="1600" height="900" fill="#F7FBF8"/>
  <rect x="78" y="74" width="1444" height="752" rx="36" fill="#FFFFFF" stroke="#DCEEEA" stroke-width="2"/>
  <circle cx="1210" cy="300" r="286" fill="#DDF5F1"/>
  <circle cx="1210" cy="300" r="208" fill="#FFFFFF"/>
  <path d="M1210 94C1096.23 94 1004 186.231 1004 300C1004 413.769 1096.23 506 1210 506C1323.77 506 1416 413.769 1416 300" stroke="#41BFA6" stroke-width="28" stroke-linecap="round"/>
  <path d="M1414 298C1414 184.231 1321.77 92 1208 92" stroke="#FFB36B" stroke-width="28" stroke-linecap="round"/>
  <path d="M1088 306C1116 250 1149 224 1182 224C1238 224 1242 380 1295 380C1324 380 1347 344 1364 304" stroke="#123B3A" stroke-width="18" stroke-linecap="round" stroke-linejoin="round"/>
  <path d="M1096 202C1126 173 1163 158 1208 158C1255 158 1296 174 1330 204" stroke="#9EE5D8" stroke-width="16" stroke-linecap="round"/>
  <circle cx="1210" cy="300" r="30" fill="#41BFA6"/>
  <circle cx="1340" cy="160" r="13" fill="#FFB36B"/>

  <text x="152" y="172" fill="#25A891" font-family="PingFang SC, Microsoft YaHei, Arial, sans-serif" font-size="28" font-weight="800" letter-spacing="0">anker-SenseLoop 观息</text>
  <text x="152" y="278" fill="#123B3A" font-family="Inter, PingFang SC, Microsoft YaHei, Arial, sans-serif" font-size="76" font-weight="850" letter-spacing="0">早晨打开，</text>
  <text x="152" y="370" fill="#123B3A" font-family="Inter, PingFang SC, Microsoft YaHei, Arial, sans-serif" font-size="76" font-weight="850" letter-spacing="0">听见身体的节律</text>
  <text x="156" y="442" fill="#5D7873" font-family="PingFang SC, Microsoft YaHei, Arial, sans-serif" font-size="32" font-weight="500" letter-spacing="0">基于 soundcore Work 夜间声音入口的 AI 健康行动助手</text>

  <g transform="translate(152 526)">
    <rect width="282" height="112" rx="18" fill="#F0FBF8" stroke="#D2EFE8"/>
    <text x="28" y="44" fill="#25A891" font-family="PingFang SC, Microsoft YaHei, Arial, sans-serif" font-size="24" font-weight="800" letter-spacing="0">夜间声音</text>
    <text x="28" y="82" fill="#5D7873" font-family="PingFang SC, Microsoft YaHei, Arial, sans-serif" font-size="20" letter-spacing="0">打鼾 / 咳嗽 / 起夜</text>
  </g>
  <g transform="translate(466 526)">
    <rect width="282" height="112" rx="18" fill="#F0FBF8" stroke="#D2EFE8"/>
    <text x="28" y="44" fill="#25A891" font-family="PingFang SC, Microsoft YaHei, Arial, sans-serif" font-size="24" font-weight="800" letter-spacing="0">身体信号</text>
    <text x="28" y="82" fill="#5D7873" font-family="PingFang SC, Microsoft YaHei, Arial, sans-serif" font-size="20" letter-spacing="0">饮食 / 排便 / 舌苔</text>
  </g>
  <g transform="translate(780 526)">
    <rect width="282" height="112" rx="18" fill="#FFF6EA" stroke="#F3D4B0"/>
    <text x="28" y="44" fill="#D9792D" font-family="PingFang SC, Microsoft YaHei, Arial, sans-serif" font-size="24" font-weight="800" letter-spacing="0">今日建议</text>
    <text x="28" y="82" fill="#806044" font-family="PingFang SC, Microsoft YaHei, Arial, sans-serif" font-size="20" letter-spacing="0">怎么吃 / 动 / 恢复</text>
  </g>

  <path d="M434 582H466" stroke="#9EE5D8" stroke-width="4" stroke-linecap="round"/>
  <path d="M748 582H780" stroke="#9EE5D8" stroke-width="4" stroke-linecap="round"/>
  <text x="152" y="720" fill="#5D7873" font-family="PingFang SC, Microsoft YaHei, Arial, sans-serif" font-size="24" letter-spacing="0">当前原型：soundcore Work + App + 知识库 + 每日报告</text>
  <text x="152" y="762" fill="#5D7873" font-family="PingFang SC, Microsoft YaHei, Arial, sans-serif" font-size="24" letter-spacing="0">未来演进：SenseLoop Watch / Band / Pendant</text>
</svg>
